<?xml version="1.0" encoding="utf-8"?>
<!-- Generator: Adobe Illustrator 25.0.1, SVG Export Plug-In . SVG Version: 6.00 Build 0)  -->
<svg version="1.1" id="Calque_3" xmlns="http://www.w3.org/2000/svg" xmlns:xlink="http://www.w3.org/1999/xlink" x="0px" y="0px"
	 viewBox="0 0 1040 618" style="enable-background:new 0 0 1040 618;" xml:space="preserve">
<style type="text/css">
	.st0{filter:url(#Adobe_OpacityMaskFilter);}
	.st1{fill:url(#SVGID_2_);}
	.st2{mask:url(#SVGID_1_);}
	.st3{fill:#FFFFFF;}
	.st4{filter:url(#Adobe_OpacityMaskFilter_1_);}
	.st5{fill:url(#SVGID_4_);}
	.st6{mask:url(#SVGID_3_);}
</style>
<g>
	<g>
		<defs>
			<filter id="Adobe_OpacityMaskFilter" filterUnits="userSpaceOnUse" x="202.6" y="180.3" width="256.3" height="256.3">
				<feFlood  style="flood-color:white;flood-opacity:1" result="back"/>
				<feBlend  in="SourceGraphic" in2="back" mode="normal"/>
			</filter>
		</defs>
		<mask maskUnits="userSpaceOnUse" x="202.6" y="180.3" width="256.3" height="256.3" id="SVGID_1_">
			<g class="st0">
				
					<linearGradient id="SVGID_2_" gradientUnits="userSpaceOnUse" x1="96.8673" y1="610.0273" x2="99.7334" y2="610.0273" gradientTransform="matrix(-81.174 0 0 -81.174 8308.0781 49832.5508)">
					<stop  offset="0" style="stop-color:#FFFFFF"/>
					<stop  offset="0.1" style="stop-color:#FFFFFF"/>
					<stop  offset="0.9812" style="stop-color:#000000"/>
					<stop  offset="0.9973" style="stop-color:#000000"/>
					<stop  offset="1" style="stop-color:#000000"/>
				</linearGradient>
				<rect x="186.1" y="180.3" class="st1" width="667.8" height="267.8"/>
			</g>
		</mask>
		<g class="st2">
			<g>
				<path class="st3" d="M421.6,308.4c0-50.1-40.6-90.8-90.8-90.8c-50.1,0-90.8,40.7-90.8,90.8c0,50.1,40.7,90.8,90.8,90.8
					C380.9,399.2,421.6,358.6,421.6,308.4 M330.8,436.6c-70.8,0-128.1-57.4-128.1-128.1c0-70.8,57.4-128.1,128.1-128.1
					c70.8,0,128.2,57.4,128.2,128.1C458.9,379.2,401.5,436.6,330.8,436.6"/>
			</g>
		</g>
		<defs>
			<filter id="Adobe_OpacityMaskFilter_1_" filterUnits="userSpaceOnUse" x="186.1" y="191.8" width="256.3" height="256.3">
				<feFlood  style="flood-color:white;flood-opacity:1" result="back"/>
				<feBlend  in="SourceGraphic" in2="back" mode="normal"/>
			</filter>
		</defs>
		<mask maskUnits="userSpaceOnUse" x="186.1" y="191.8" width="256.3" height="256.3" id="SVGID_3_">
			<g class="st4">
				
					<linearGradient id="SVGID_4_" gradientUnits="userSpaceOnUse" x1="101.177" y1="610.0766" x2="104.0431" y2="610.0766" gradientTransform="matrix(81.174 0 0 -81.174 -8012.8901 49836.5508)">
					<stop  offset="0" style="stop-color:#FFFFFF"/>
					<stop  offset="0.1" style="stop-color:#FFFFFF"/>
					<stop  offset="0.9812" style="stop-color:#000000"/>
					<stop  offset="0.9973" style="stop-color:#000000"/>
					<stop  offset="1" style="stop-color:#000000"/>
				</linearGradient>
				<rect x="186.1" y="180.3" class="st5" width="667.8" height="267.8"/>
			</g>
		</mask>
		<g class="st6">
			<g>
				<path class="st3" d="M223.4,320c0-50.1,40.7-90.8,90.8-90.8c50.1,0,90.8,40.7,90.8,90.8c0,50.1-40.7,90.8-90.8,90.8
					C264.1,410.8,223.4,370.1,223.4,320 M314.2,448.1c70.8,0,128.1-57.4,128.1-128.2S385,191.8,314.2,191.8
					c-70.8,0-128.2,57.4-128.2,128.1S243.5,448.1,314.2,448.1"/>
			</g>
		</g>
	</g>
</g>
<g>
	<path class="st3" d="M573.2,298.3l-20-50.3l-20.2,50.3H573.2z M589,335.2l-8.6-20.2h-54.5l-8.6,20.2h-20.7l53.4-123.1h6.6
		l53.4,123.1H589z"/>
	<polygon class="st3" points="706.9,214.2 706.9,231.6 648.6,231.6 648.6,267.7 706.9,267.7 706.9,285.3 648.6,285.3 648.6,335.2 
		629.1,335.2 629.1,214.2 	"/>
	<path class="st3" d="M745.6,231.8v86h18.3c14.1,0,25.3-4,33.6-12.1c8.3-8.1,12.5-18.5,12.5-31.2c0-13-4.2-23.3-12.5-31
		c-8.3-7.9-19.4-11.7-33.6-11.7H745.6z M764.1,214.2c20,0,35.9,5.5,47.9,16.7c11.9,11.2,18,25.7,18,43.6c0,17.8-6.1,32.5-18.2,43.8
		c-11.9,11.2-27.9,16.9-47.7,16.9h-38v-121H764.1z"/>
</g>
<g>
	<path class="st3" d="M505.6,363l-9.7,22.4h3.8l1.6-3.7h9.9l1.6,3.7h3.8l-9.7-22.4H505.6z M502.5,378.7l3.7-9.1l3.6,9.1H502.5z"/>
	<path class="st3" d="M530.1,376.9h6.8v2.4c-1.5,2.2-3.7,3.3-6.6,3.3c-2.4,0-4.3-0.8-5.8-2.3c-1.5-1.6-2.3-3.5-2.3-5.9
		c0-2.3,0.7-4.3,2.2-5.8c1.5-1.5,3.4-2.3,5.7-2.3c2.7,0,4.9,1.2,6.6,3.5l2.6-2.1c-2.2-3.1-5.2-4.6-9.1-4.6c-3.3,0-6,1.1-8.3,3.3
		c-2.2,2.2-3.4,4.9-3.4,8.1c0,3.2,1.1,5.9,3.4,8.1c2.2,2.2,5,3.3,8.3,3.3c2.2,0,4.3-0.5,6.1-1.6c1.8-1.1,3.2-2.5,4.2-4.2v-6.2h-10.3
		V376.9z"/>
	<polygon class="st3" points="561,382.2 549.7,382.2 549.7,375.3 557.9,375.3 557.9,372.2 549.7,372.2 549.7,366.5 560.6,366.5 
		560.6,363.4 546.2,363.4 546.2,385.4 561,385.4 	"/>
	<polygon class="st3" points="569.7,370.5 583.1,385.8 584.3,385.8 584.3,363.4 580.8,363.4 580.8,378.2 567.4,363 566.1,363 
		566.1,385.4 569.7,385.4 	"/>
	<path class="st3" d="M606.9,384.4c1.7-0.9,3-2.1,3.9-3.7l-2.7-2c-1.6,2.5-3.9,3.8-6.7,3.8c-2.3,0-4.2-0.8-5.7-2.3
		c-1.5-1.5-2.3-3.5-2.3-5.8c0-2.3,0.8-4.3,2.3-5.8c1.5-1.5,3.4-2.3,5.7-2.3c2.8,0,5.1,1.3,6.7,3.8l2.7-2c-1-1.6-2.3-2.8-3.9-3.7
		c-1.7-0.9-3.5-1.4-5.5-1.4c-3.2,0-6,1.1-8.2,3.3c-2.2,2.2-3.4,4.9-3.4,8.1c0,3.2,1.1,5.9,3.4,8.1c2.2,2.2,5,3.3,8.2,3.3
		C603.4,385.8,605.3,385.3,606.9,384.4z"/>
	<polygon class="st3" points="630.9,382.2 619.5,382.2 619.5,375.3 627.8,375.3 627.8,372.2 619.5,372.2 619.5,366.5 630.5,366.5 
		630.5,363.4 616,363.4 616,385.4 630.9,385.4 	"/>
	<polygon class="st3" points="650.9,376.3 659.6,376.3 659.6,373.1 650.9,373.1 650.9,366.5 661.5,366.5 661.5,363.4 647.3,363.4 
		647.3,385.4 650.9,385.4 	"/>
	<path class="st3" d="M677.2,376.3c1.3-0.5,2.4-1.3,3.1-2.4c0.7-1.1,1.1-2.4,1.1-3.8c0-2-0.7-3.6-2.1-4.9c-1.4-1.2-3.2-1.9-5.4-1.9
		h-8v22h3.5v-8.5h4l6.3,8.5h4L677.2,376.3z M673.9,373.8h-4.4v-7.2h4.4c1.2,0,2.2,0.3,2.9,1c0.7,0.7,1,1.5,1,2.6
		c0,1.1-0.3,1.9-1,2.6C676.1,373.4,675.1,373.8,673.9,373.8z"/>
	<path class="st3" d="M707.8,385.4l-9.7-22.4h-1.2l-9.7,22.4h3.8l1.6-3.7h9.9l1.6,3.7H707.8z M693.8,378.7l3.7-9.1l3.6,9.1H693.8z"
		/>
	<polygon class="st3" points="715.8,370.5 729.2,385.8 730.4,385.8 730.4,363.4 726.9,363.4 726.9,378.2 713.5,363 712.2,363 
		712.2,385.4 715.8,385.4 	"/>
	<path class="st3" d="M776.7,385.4h3.8l-9.7-22.4h-1.2l-9.7,22.4h3.8l1.6-3.7h9.9L776.7,385.4z M766.5,378.7l3.7-9.1l3.6,9.1H766.5z
		"/>
	<rect x="784.9" y="363.4" class="st3" width="3.5" height="22"/>
	<path class="st3" d="M803.9,373.1l-2.5-1.1c-1.1-0.5-1.9-1-2.4-1.4c-0.5-0.4-0.7-1-0.7-1.7c0-0.9,0.3-1.5,1-2
		c0.6-0.5,1.4-0.7,2.4-0.7c1.9,0,3.5,0.9,4.6,2.7l2.5-1.9c-0.7-1.2-1.7-2.1-2.9-2.9c-1.2-0.7-2.6-1.1-4.2-1.1c-2,0-3.6,0.6-4.9,1.7
		c-1.3,1.1-2,2.5-2,4.3c0,1.4,0.5,2.6,1.4,3.6c0.9,1,2.2,1.8,3.8,2.5l2.4,1.1c1.2,0.5,2,1,2.5,1.5c0.5,0.4,0.8,1.1,0.8,1.8
		c0,0.9-0.4,1.7-1.1,2.2c-0.7,0.6-1.6,0.8-2.8,0.8c-2.2,0-4.2-1.2-5.8-3.5l-2.5,1.9c0.8,1.5,2,2.7,3.4,3.5c1.4,0.8,3.1,1.3,4.9,1.3
		c2.1,0,3.9-0.6,5.3-1.8c1.4-1.2,2.1-2.7,2.1-4.6c0-1.4-0.4-2.6-1.3-3.6C807,374.8,805.7,373.9,803.9,373.1z"/>
	<polygon class="st3" points="829.7,382.2 818.4,382.2 818.4,375.3 826.6,375.3 826.6,372.2 818.4,372.2 818.4,366.5 829.3,366.5 
		829.3,363.4 814.8,363.4 814.8,385.4 829.7,385.4 	"/>
	<path class="st3" d="M503.8,400.8h-6.9v22h6.9c3.6,0,6.5-1,8.7-3.1c2.2-2.1,3.3-4.7,3.3-8c0-3.3-1.1-5.9-3.3-7.9
		C510.3,401.8,507.4,400.8,503.8,400.8z M509.9,417.5c-1.5,1.5-3.6,2.2-6.1,2.2h-3.3V404h3.3c2.6,0,4.6,0.7,6.1,2.1
		c1.5,1.4,2.3,3.3,2.3,5.7C512.1,414.1,511.4,416,509.9,417.5z"/>
	<polygon class="st3" points="524.5,412.7 532.7,412.7 532.7,409.6 524.5,409.6 524.5,404 535.4,404 535.4,400.8 520.9,400.8 
		520.9,422.8 535.8,422.8 535.8,419.7 524.5,419.7 	"/>
	<path class="st3" d="M558.6,400.8h-6.9v22h6.9c3.6,0,6.5-1,8.7-3.1c2.2-2.1,3.3-4.7,3.3-8c0-3.3-1.1-5.9-3.3-7.9
		C565.1,401.8,562.2,400.8,558.6,400.8z M564.7,417.5c-1.5,1.5-3.6,2.2-6.1,2.2h-3.3V404h3.3c2.6,0,4.6,0.7,6.1,2.1
		c1.5,1.4,2.3,3.3,2.3,5.7C567,414.1,566.2,416,564.7,417.5z"/>
	<polygon class="st3" points="579.3,412.7 587.5,412.7 587.5,409.6 579.3,409.6 579.3,404 590.2,404 590.2,400.8 575.8,400.8 
		575.8,422.8 590.6,422.8 590.6,419.7 579.3,419.7 	"/>
	<polygon class="st3" points="604.2,416.1 597.9,400.8 593.9,400.8 603.6,423.2 604.8,423.2 614.5,400.8 610.5,400.8 	"/>
	<polygon class="st3" points="622.2,412.7 630.5,412.7 630.5,409.6 622.2,409.6 622.2,404 633.2,404 633.2,400.8 618.7,400.8 
		618.7,422.8 633.6,422.8 633.6,419.7 622.2,419.7 	"/>
	<polygon class="st3" points="641.9,400.8 638.4,400.8 638.4,422.8 652,422.8 652,419.7 641.9,419.7 	"/>
	<path class="st3" d="M665.7,400.4c-3.2,0-6,1.1-8.2,3.3c-2.2,2.2-3.4,4.9-3.4,8.1c0,3.2,1.1,5.9,3.4,8.1c2.2,2.2,5,3.3,8.2,3.3
		c3.2,0,5.9-1.1,8.2-3.3c2.3-2.2,3.4-4.9,3.4-8.1c0-3.2-1.1-5.9-3.4-8.1C671.6,401.5,668.9,400.4,665.7,400.4z M671.4,417.7
		c-1.5,1.5-3.4,2.3-5.7,2.3c-2.3,0-4.2-0.8-5.7-2.3c-1.5-1.5-2.2-3.5-2.2-5.9c0-2.3,0.7-4.3,2.2-5.8c1.5-1.5,3.4-2.3,5.7-2.3
		c2.2,0,4.1,0.8,5.6,2.3c1.5,1.5,2.3,3.5,2.3,5.8C673.6,414.2,672.9,416.1,671.4,417.7z"/>
	<path class="st3" d="M695.9,402.7c-1.4-1.2-3.2-1.9-5.4-1.9h-8v22h3.5v-8.5h4.5c2.2,0,4-0.6,5.4-1.9c1.4-1.3,2.1-2.9,2.1-4.9
		S697.3,403.9,695.9,402.7z M693.3,410.2c-0.7,0.7-1.6,1-2.9,1H686V404h4.4c1.2,0,2.2,0.3,2.9,1c0.7,0.7,1,1.5,1,2.6
		C694.4,408.7,694,409.6,693.3,410.2z"/>
	<path class="st3" d="M715.9,402.7c-1.4-1.2-3.2-1.9-5.4-1.9h-8v22h3.5v-8.5h4.5c2.2,0,4-0.6,5.4-1.9c1.4-1.3,2.1-2.9,2.1-4.9
		S717.3,403.9,715.9,402.7z M713.3,410.2c-0.7,0.7-1.6,1-2.9,1H706V404h4.4c1.2,0,2.2,0.3,2.9,1c0.7,0.7,1,1.5,1,2.6
		C714.3,408.7,714,409.6,713.3,410.2z"/>
	<polygon class="st3" points="725.9,412.7 734.2,412.7 734.2,409.6 725.9,409.6 725.9,404 736.9,404 736.9,400.8 722.4,400.8 
		722.4,422.8 737.3,422.8 737.3,419.7 725.9,419.7 	"/>
	<polygon class="st3" points="752.6,412.8 743.3,400.4 742.1,400.4 742.1,422.8 745.6,422.8 745.6,409 752,417.3 753.2,417.3 
		759.5,409 759.5,422.8 763,422.8 763,400.4 761.8,400.4 	"/>
	<polygon class="st3" points="773.1,412.7 781.3,412.7 781.3,409.6 773.1,409.6 773.1,404 784,404 784,400.8 769.5,400.8 
		769.5,422.8 784.4,422.8 784.4,419.7 773.1,419.7 	"/>
	<polygon class="st3" points="803.8,415.7 790.5,400.4 789.2,400.4 789.2,422.8 792.8,422.8 792.8,408 806.2,423.2 807.4,423.2 
		807.4,400.8 803.8,400.8 	"/>
	<polygon class="st3" points="811.5,400.8 811.5,404 818.9,404 818.9,422.8 822.4,422.8 822.4,404 829.9,404 829.9,400.8 	"/>
	<path class="st3" d="M744.9,388c1.6,0.2,2.6,0.5,2.6,1.4c0,0.7-0.6,1-1.4,1c-0.7,0-1.4-0.2-1.9-0.4l-0.5,1.5
		c0.6,0.3,1.5,0.6,2.4,0.6c1.7,0,3.4-0.8,3.4-2.7c0-1.4-1.1-2.3-2.3-2.5l0.6-1.1c1.9-0.1,3.6-0.5,5.1-1.3c1.7-0.9,3-2.1,3.9-3.7
		l-2.7-2c-1.6,2.5-3.9,3.8-6.7,3.8c-2.3,0-4.2-0.8-5.7-2.3c-1.5-1.5-2.3-3.5-2.3-5.8c0-2.3,0.8-4.3,2.3-5.8c1.5-1.5,3.4-2.3,5.7-2.3
		c2.8,0,5.1,1.3,6.7,3.8l2.7-2c-1-1.6-2.3-2.8-3.9-3.7c-1.7-0.9-3.5-1.4-5.5-1.4c-3.2,0-6,1.1-8.2,3.3c-2.2,2.2-3.4,4.9-3.4,8.1
		c0,3.2,1.1,5.9,3.4,8.1c1.9,1.9,4.2,2.9,6.9,3.2L744.9,388z"/>
	<polygon class="st3" points="581.3,399.5 584.3,399.5 587.7,395.9 584.1,395.9 	"/>
</g>
</svg>
